# File created by Blade
# Date/Time:  Tue Sep 30 19:08:11 2014
#---------------------------------------------------------
:version 1.10
:name HOM
:units
  mass 1.0
  length 1.000000
  angle deg
:documentation
     Acclaim Skeleton File
:root
   axis xyz
   order TX TY TZ RX RY RZ
   position 0.000000 0.000000 0.000000
   orientation 0 0 0
:bonedata
   begin
      id 1
      name Spine_dum
      direction 0.000000 1.000000 0.000000
      length 7.508948
      axis 0.0 0.0 0.0 xyz
   end
   begin
      id 2
      name LeftUpLeg_dum
      direction 1.000000 0.000000 0.000000
      length 3.000560
      axis 0.0 0.0 0.0 xyz
   end
   begin
      id 3
      name RightUpLeg_dum
      direction -1.000000 0.000000 0.000000
      length 3.000560
      axis 0.0 0.0 0.0 xyz
   end
   begin
      id 4
      name Spine
      direction 0.000000 1.000000 0.000000
      length 0.000000
      axis 0.0 0.0 0.0 xyz
      dof rx ry rz
   end
   begin
      id 5
      name Spine_dum1
      direction 0.000000 1.000000 0.000000
      length 13.861154
      axis 0.0 0.0 0.0 xyz
   end
   begin
      id 6
      name Spine_dum2
      direction 0.000000 1.000000 0.000000
      length 8.204781
      axis 0.0 0.0 0.0 xyz
   end
   begin
      id 7
      name Spine_dum3
      direction 0.000000 1.000000 0.000000
      length 8.204781
      axis 0.0 0.0 0.0 xyz
   end
   begin
      id 8
      name Head
      direction 0.000000 1.000000 0.000000
      length 4.527550
      axis 0.0 0.0 0.0 xyz
      dof rx ry rz
   end
   begin
      id 9
      name LeftShoulder
      direction 1.000000 0.000000 0.000000
      length 6.635956
      axis 0.0 0.0 -90.0 xyz
      dof rx ry rz
   end
   begin
      id 10
      name LeftArm
      direction 1.000000 0.000000 0.000000
      length 10.274218
      axis 0.0 0.0 -90.0 xyz
      dof rx ry rz
   end
   begin
      id 11
      name LeftForeArm
      direction 1.000000 0.000000 0.000000
      length 8.522147
      axis 0.0 0.0 -90.0 xyz
      dof ry rz rx
   end
   begin
      id 12
      name LeftHand
      direction 0.000000 0.000000 0.000000
      length 0.000000
      axis 0.0 0.0 -90.0 xyz
      dof rx ry rz
   end
   begin
      id 13
      name LeftHand_dum1
      direction 0.000000 0.000000 0.000000
      length 0.000000
      axis 0.0 0.0 -90.0 xyz
   end
   begin
      id 14
      name LeftHand_dum2
      direction 1.000000 0.000000 0.000000
      length 3.937000
      axis 0.0 0.0 -90.0 xyz
   end
   begin
      id 15
      name LeftHandThumb1
      direction 0.000000 0.000000 1.000000
      length 3.937000
      axis 0.0 0.0 -90.0 xyz
      dof rx rz ry
   end
   begin
      id 16
      name RightShoulder
      direction -1.000000 0.000000 0.000000
      length 6.635956
      axis 0.0 0.0 90.0 xyz
      dof rx ry rz
   end
   begin
      id 17
      name RightArm
      direction -1.000000 0.000000 0.000000
      length 10.274218
      axis 0.0 0.0 90.0 xyz
      dof rx ry rz
   end
   begin
      id 18
      name RightForeArm
      direction -1.000000 0.000000 0.000000
      length 8.522147
      axis 0.0 0.0 90.0 xyz
      dof ry rz rx
   end
   begin
      id 19
      name RightHand
      direction 0.000000 0.000000 0.000000
      length 0.000000
      axis 0.0 0.0 90.0 xyz
      dof rx ry rz
   end
   begin
      id 20
      name RightHand_dum1
      direction 0.000000 0.000000 0.000000
      length 0.000000
      axis 0.0 0.0 90.0 xyz
   end
   begin
      id 21
      name RightHand_dum2
      direction -1.000000 0.000000 0.000000
      length 3.937000
      axis 0.0 0.0 90.0 xyz
   end
   begin
      id 22
      name RightHandThumb1
      direction 0.000000 0.000000 1.000000
      length 3.937000
      axis 0.0 0.0 90.0 xyz
      dof rx rz ry
   end
   begin
      id 23
      name LeftUpLeg
      direction 0.000000 -1.000000 0.000000
      length 16.490845
      axis 0.0 0.0 0.0 xyz
      dof rx ry rz
   end
   begin
      id 24
      name LeftLeg
      direction 0.000000 -1.000000 0.000000
      length 14.556576
      axis 0.0 0.0 0.0 xyz
      dof rx ry rz
   end
   begin
      id 25
      name LeftFoot
      direction 0.000000 -0.258819 0.965926
      length 4.831116
      axis 15.0 0.0 0.0 xyz
      dof rx ry rz
   end
   begin
      id 26
      name LeftToeBase
      direction 0.000000 0.000000 1.000000
      length 2.952750
      axis 0.0 0.0 0.0 xyz
      dof rx ry rz
   end
   begin
      id 27
      name RightUpLeg
      direction 0.000000 -1.000000 0.000000
      length 16.490845
      axis 0.0 0.0 0.0 xyz
      dof rx ry rz
   end
   begin
      id 28
      name RightLeg
      direction 0.000000 -1.000000 0.000000
      length 14.556576
      axis 0.0 0.0 0.0 xyz
      dof rx ry rz
   end
   begin
      id 29
      name RightFoot
      direction 0.000000 -0.258819 0.965926
      length 4.831116
      axis 15.0 0.0 0.0 xyz
      dof rx ry rz
   end
   begin
      id 30
      name RightToeBase
      direction 0.000000 0.000000 1.000000
      length 2.952750
      axis 0.0 0.0 0.0 xyz
      dof rx ry rz
   end
:hierarchy
   begin
      root Spine_dum LeftUpLeg_dum RightUpLeg_dum
      Spine_dum Spine
      LeftUpLeg_dum LeftUpLeg
      RightUpLeg_dum RightUpLeg
      Spine Spine_dum1 Spine_dum2 Spine_dum3
      Spine_dum1 Head
      Spine_dum2 LeftShoulder
      Spine_dum3 RightShoulder
      LeftShoulder LeftArm
      LeftArm LeftForeArm
      LeftForeArm LeftHand
      LeftHand LeftHand_dum1 LeftHand_dum2
      LeftHand_dum1 LeftHandThumb1
      RightShoulder RightArm
      RightArm RightForeArm
      RightForeArm RightHand
      RightHand RightHand_dum1 RightHand_dum2
      RightHand_dum1 RightHandThumb1
      LeftUpLeg LeftLeg
      LeftLeg LeftFoot
      LeftFoot LeftToeBase
      RightUpLeg RightLeg
      RightLeg RightFoot
      RightFoot RightToeBase
   end

# File created by Blade
# Date/Time:  Thu Sep 25 21:01:51 2014
# Frame Rate: 120.000 fps
#------------------------------------------------------
:FULLY-SPECIFIED
:DEGREES
534
root -0.283624 3.274321 -12.347436 -25.763082 7.859231 -13.811101
Spine 16.155993 5.955502 -0.608982
Head -6.362903 -27.777519 26.312896
LeftShoulder -1.483061 24.285514 28.445279
LeftArm 5.054443 40.338092 -78.442764
LeftForeArm -46.157683 -0.000000 57.254055
LeftHand -49.971148 -0.000000 92.832872
LeftHandThumb1 -26.253704 0.000000 33.147579
RightShoulder -15.338712 2.006028 -15.232645
RightArm -46.856353 -50.460616 122.466760
RightForeArm -8.008883 -0.000000 38.871866
RightHand -7.719599 0.000000 8.753630
RightHandThumb1 -24.326973 -0.000000 -32.862282
LeftUpLeg -96.557532 5.917193 -31.755883
LeftLeg 85.837103 -0.000000 -0.000000
LeftFoot 8.623614 10.491085 -37.230874
LeftToeBase 0.501016 -0.000000 -0.000000
RightUpLeg -67.342362 -19.878576 6.683448
RightLeg 6.741389 -0.000000 -0.000000
RightFoot 7.340008 -8.286478 4.416706
RightToeBase -3.975599 -0.000000 0.000000
535
root -0.299242 3.273714 -12.333213 -25.631181 8.158876 -13.746726
Spine 16.185989 5.908955 -0.471607
Head -6.598127 -27.657535 26.182585
LeftShoulder -1.531716 24.176915 28.291817
LeftArm 5.484148 40.075830 -78.507143
LeftForeArm -45.484725 -0.000000 56.305183
LeftHand -50.104151 -0.000000 93.165983
LeftHandThumb1 -26.253704 0.000000 33.147579
RightShoulder -15.272824 2.122946 -15.351774
RightArm -46.916991 -49.966562 122.611185
RightForeArm -7.517582 0.000000 38.561153
RightHand -7.371030 0.000000 8.767527
RightHandThumb1 -24.326973 -0.000000 -32.862282
LeftUpLeg -96.564079 5.626157 -31.806000
LeftLeg 85.872836 -0.000000 -0.000000
LeftFoot 8.722812 10.431781 -37.383751
LeftToeBase 0.540555 -0.000000 -0.000000
RightUpLeg -67.323233 -19.949454 6.852927
RightLeg 6.575247 -0.000000 -0.000000
RightFoot 7.319620 -8.127785 4.635456
RightToeBase -4.324872 -0.000000 0.000000
536
root -0.303987 3.270952 -12.322369 -25.471029 8.475810 -13.554435
Spine 16.215976 5.876700 -0.469102
Head -6.797756 -27.510768 26.014697
LeftShoulder -1.538703 23.991204 28.157638
LeftArm 5.823466 39.876119 -78.626158
LeftForeArm -45.139940 -0.000000 55.340454
LeftHand -49.932344 -0.000000 93.393791
LeftHandThumb1 -26.253704 0.000000 33.147579
RightShoulder -15.323440 2.128123 -15.470767
RightArm -46.794702 -49.613209 122.588122
RightForeArm -7.941234 0.000000 38.260155
RightHand -7.511828 0.000000 7.844374
RightHandThumb1 -24.326973 -0.000000 -32.862282
LeftUpLeg -96.568874 5.357510 -31.988964
LeftLeg 85.880488 -0.000000 -0.000000
LeftFoot 8.868880 10.385639 -37.528841
LeftToeBase 0.449174 -0.000000 -0.000000
RightUpLeg -67.328287 -20.007835 6.892702
RightLeg 6.447436 -0.000000 -0.000000
RightFoot 7.271465 -8.195130 5.093015
RightToeBase -2.734001 -0.000000 0.000000
537
root -0.318532 3.270217 -12.314064 -25.299769 8.764285 -13.451047
Spine 16.252935 5.806507 -0.359234
Head -7.044401 -27.237049 25.833139
LeftShoulder -1.551657 23.733388 27.970812
LeftArm 6.142147 39.756498 -78.741664
LeftForeArm -45.128200 -0.000000 54.332878
LeftHand -49.388747 -0.000000 93.896965
LeftHandThumb1 -26.253704 0.000000 33.147579
RightShoulder -15.313038 2.072396 -15.527914
RightArm -46.497919 -49.136382 122.371633
RightForeArm -8.087069 -0.000000 37.943086
RightHand -7.133874 -0.000000 7.589787
RightHandThumb1 -24.326973 -0.000000 -32.862282
LeftUpLeg -96.591219 5.078810 -32.097328
LeftLeg 85.876117 -0.000000 -0.000000
LeftFoot 8.929130 10.339673 -37.679932
LeftToeBase 0.540868 -0.000000 -0.000000
RightUpLeg -67.352991 -20.072526 7.108543
RightLeg 6.254082 -0.000000 -0.000000
RightFoot 7.561153 -8.190032 4.999093
RightToeBase -2.858680 -0.000000 0.000000
538
root -0.318889 3.265159 -12.306608 -25.122213 9.099123 -13.285942
Spine 16.285064 5.661047 -0.325512
Head -7.231014 -27.002257 25.592594
LeftShoulder -1.565505 23.529059 27.778555
LeftArm 6.490495 39.467012 -78.901927
LeftForeArm -44.809677 -0.000000 53.190256
LeftHand -49.397349 -0.000000 94.584339
LeftHandThumb1 -26.253704 0.000000 33.147579
RightShoulder -15.278142 2.104160 -15.627665
RightArm -46.317837 -48.609096 122.244803
RightForeArm -8.341803 -0.000000 37.683750
RightHand -7.069910 -0.000000 7.083436
RightHandThumb1 -24.326973 -0.000000 -32.862282
LeftUpLeg -96.568347 4.733750 -32.254107
LeftLeg 85.831331 -0.000000 -0.000000
LeftFoot 9.143765 10.322601 -37.482010
LeftToeBase -0.090854 -0.000000 0.000000
RightUpLeg -67.332370 -20.158946 7.152071
RightLeg 6.087407 -0.000000 -0.000000
RightFoot 7.502704 -8.062493 5.216578
RightToeBase -2.484856 -0.000000 0.000000
539
root -0.327607 3.263930 -12.303033 -24.933858 9.382437 -13.153026
Spine 16.333720 5.572688 -0.232353
Head -7.510663 -26.721535 25.411361
LeftShoulder -1.540909 23.286115 27.577149
LeftArm 6.936336 39.445099 -78.985389
LeftForeArm -44.479930 0.000000 51.931428
LeftHand -49.011656 -0.000000 95.134778
LeftHandThumb1 -26.253704 0.000000 33.147579
RightShoulder -15.276641 2.087744 -15.709913
RightArm -46.007549 -48.061626 122.014234
RightForeArm -8.647557 -0.000000 37.457493
RightHand -6.971789 -0.000000 6.778845
RightHandThumb1 -24.326973 -0.000000 -32.862282
LeftUpLeg -96.584274 4.456121 -32.384019
LeftLeg 85.795722 -0.000000 -0.000000
LeftFoot 9.212862 10.247200 -37.543383
LeftToeBase -0.211340 -0.000000 0.000000
RightUpLeg -67.417894 -20.266614 7.433985
RightLeg 5.994651 -0.000000 -0.000000
RightFoot 7.607169 -7.850892 5.361829
RightToeBase -2.825717 -0.000000 0.000000
540
root -0.335781 3.260823 -12.296582 -24.752292 9.632202 -13.006411
Spine 16.396676 5.468602 -0.142463
Head -7.761926 -26.378312 25.164759
LeftShoulder -1.559295 22.989562 27.382038
LeftArm 7.364048 39.424749 -79.123009
LeftForeArm -44.168761 -0.000000 50.596805
LeftHand -48.665099 0.000000 95.855395
LeftHandThumb1 -26.253704 0.000000 33.147579
RightShoulder -15.239178 2.117722 -15.839728
RightArm -45.719822 -47.416398 121.795259
RightForeArm -9.007350 -0.000000 37.277061
RightHand -6.898078 -0.000000 6.541313
RightHandThumb1 -24.326973 -0.000000 -32.862282
LeftUpLeg -96.622736 4.222044 -32.527911
LeftLeg 85.787209 -0.000000 -0.000000
LeftFoot 9.233978 10.165384 -37.736644
LeftToeBase -0.329690 -0.000000 0.000000
RightUpLeg -67.342258 -20.249080 7.466970
RightLeg 5.808232 -0.000000 -0.000000
RightFoot 7.790930 -7.876603 5.284943
RightToeBase -2.479789 -0.000000 0.000000
541
root -0.346285 3.257618 -12.290709 -24.565665 9.868422 -12.884211
Spine 16.466749 5.307995 -0.036578
Head -8.028030 -25.953758 24.928533
LeftShoulder -1.563993 22.821260 27.159127
LeftArm 7.929496 39.399396 -79.167329
LeftForeArm -43.746083 -0.000000 49.181863
LeftHand -48.497889 -0.000000 96.415833
LeftHandThumb1 -26.253704 0.000000 33.147579
RightShoulder -15.198577 2.122373 -15.998251
RightArm -45.320879 -46.762480 121.507900
RightForeArm -9.448492 -0.000000 37.060222
RightHand -6.768161 -0.000000 6.359223
RightHandThumb1 -24.326973 -0.000000 -32.862282
LeftUpLeg -96.673300 3.964492 -32.612292
LeftLeg 85.777696 -0.000000 -0.000000
LeftFoot 9.255785 10.107174 -37.898534
LeftToeBase -0.449735 -0.000000 0.000000
RightUpLeg -67.330431 -20.283527 7.661048
RightLeg 5.648322 -0.000000 -0.000000
RightFoot 7.882948 -7.794282 5.410083
RightToeBase -2.733825 -0.000000 0.000000
542
root -0.358046 3.255990 -12.284735 -24.378162 10.043828 -12.761934
Spine 16.541008 5.188928 0.079720
Head -8.285032 -25.514528 24.718874
LeftShoulder -1.507023 22.473735 26.994257
LeftArm 8.255063 39.343644 -79.435288
LeftForeArm -43.584596 0.000000 47.658531
LeftHand -48.467501 -0.000000 97.289194
LeftHandThumb1 -26.253704 0.000000 33.147579
RightShoulder -15.185342 2.126525 -16.144296
RightArm -44.951739 -46.143434 121.235401
RightForeArm -9.841597 0.000000 36.852568
RightHand -6.713280 -0.000000 6.080505
RightHandThumb1 -24.326973 -0.000000 -32.862282
LeftUpLeg -96.762292 3.770901 -32.696873
LeftLeg 85.786535 -0.000000 -0.000000
LeftFoot 9.279018 10.046619 -38.071476
LeftToeBase -0.510091 -0.000000 0.000000
RightUpLeg -67.209419 -20.193037 7.705025
RightLeg 5.473050 -0.000000 -0.000000
RightFoot 7.978477 -7.849321 5.554149
RightToeBase -2.674178 -0.000000 0.000000
543
root -0.366618 3.253772 -12.279698 -24.194995 10.211378 -12.632935
Spine 16.633433 5.025832 0.179020
Head -8.529247 -25.053821 24.515844
LeftShoulder -1.485368 22.267841 26.808931
LeftArm 8.761312 39.311213 -79.579040
LeftForeArm -43.383875 -0.000000 46.130800
LeftHand -48.376286 0.000000 97.878417
LeftHandThumb1 -26.253704 0.000000 33.147579
RightShoulder -15.140997 2.169349 -16.290521
RightArm -44.599824 -45.489477 120.964243
RightForeArm -10.231131 0.000000 36.613053
RightHand -6.670565 -0.000000 5.761293
RightHandThumb1 -24.326973 -0.000000 -32.862282
LeftUpLeg -96.843383 3.589990 -32.799323
LeftLeg 85.792738 -0.000000 -0.000000
LeftFoot 9.238900 9.968333 -38.329059
LeftToeBase -0.343336 -0.000000 0.000000
RightUpLeg -67.083124 -20.142500 7.839513
RightLeg 5.247221 -0.000000 -0.000000
RightFoot 8.093549 -7.812145 5.680810
RightToeBase -2.249221 -0.000000 0.000000
